<svg width="122" height="80" viewBox="0 0 122 80" fill="none" xmlns="http://www.w3.org/2000/svg">
<path d="M78.7338 30.6284V29.3753H80.9942L81.1958 29.7899L78.7338 30.6284ZM90.2208 29.3753C90.8351 28.7516 91.6514 29.3753 92.6784 29.1659C92.6784 29.3756 92.8825 30.0019 92.2703 30.4143C91.4473 29.7902 90.4316 29.3756 90.2208 29.3756M76.0725 17.4995C76.0725 17.4995 75.6643 17.4995 76.0725 17.29L80.7901 16.8732C81.4044 17.29 82.225 17.29 82.429 17.9187L82.8393 18.126C82.429 19.7955 82.429 21.668 82.429 23.5401C81.6085 23.7496 80.586 24.3761 80.586 25.6264C79.763 26.0435 78.7338 26.2482 78.1241 26.8748C77.7139 26.6675 77.3033 26.0435 77.0992 25.4191C78.1241 24.3761 79.9714 25.0023 79.9714 23.128L81.1958 22.5037C81.1958 21.2465 81.1958 20.0006 81.6085 19.1668L81.1958 18.75C81.1958 19.1668 80.9942 19.3741 80.586 19.7955C79.763 19.7955 78.7338 20.0006 78.1241 19.3741C77.7139 19.1668 77.7138 18.126 77.0992 18.126C76.893 18.126 76.2787 18.126 76.0725 17.4995ZM88.5797 17.9187C88.5797 17.4998 88.99 17.0827 89.6065 16.8732H94.7322C94.7322 17.4998 94.1155 18.1263 93.5014 18.1263C93.5014 18.75 92.8825 19.1668 92.4744 19.3741C92.0662 19.7955 91.6514 19.7955 91.0392 19.3741C90.4316 19.7955 90.2208 18.75 90.0146 19.3741C90.0146 20.6247 90.0146 21.2465 90.2208 22.2917C90.4316 23.7496 91.86 23.5401 92.6784 24.3761C92.8825 24.7882 93.5014 26.0435 92.8825 26.6672C92.2703 26.2482 91.6514 26.0435 90.8351 25.6264C90.8351 25.0023 90.0146 24.3761 89.1983 23.7499C89.1983 21.8753 88.5797 20.0006 88.5797 17.9187ZM86.7343 12.9192C87.3464 12.4977 88.5797 13.1243 89.1983 13.5432C90.0146 13.7505 90.8351 14.3724 90.8351 15.0011H88.3756C87.9675 14.3724 87.3467 13.5432 86.7343 12.9192ZM79.559 15.0011C79.559 14.3724 79.7631 14.3724 79.9717 14.1698C80.9942 14.1698 80.9942 12.4977 81.8126 12.9192C82.4293 12.9192 82.8393 12.4977 83.2453 12.9192C83.4539 13.1243 83.2453 13.1243 83.0412 13.1243C81.8126 13.1243 82.429 14.7916 81.6082 15.0008L79.559 15.0011ZM72.384 13.7505C71.9691 12.4977 71.7626 10.6256 72.5881 9.3772C73.2024 8.75347 74.2292 8.12693 75.2541 7.5007L76.893 8.12693C77.7138 8.75347 78.1241 9.37751 78.1241 10.6256C76.6868 11.2521 75.0454 12.9192 74.4332 14.3724H73.8189C73.2021 13.7505 72.5881 14.3724 72.384 13.7505ZM91.4473 10.6256C91.6514 8.5415 94.1158 8.12693 95.342 7.5007H95.9588C97.8042 7.91746 98.2166 9.7896 98.4207 11.2518C97.8039 13.1243 96.5755 11.8737 95.5531 13.1243C94.7322 12.4977 92.4744 11.0424 91.4473 10.6256ZM116.666 74.3761C116.872 74.3761 117.489 73.7496 118.099 73.7496C118.72 74.998 118.099 76.0435 118.099 77.4963C118.099 77.9178 118.305 78.7563 118.305 78.7563C118.72 78.7563 119.539 77.7058 119.947 77.0843V73.5448L117.899 71.0417C116.666 71.8728 116.258 73.1255 116.666 74.3761M110.926 71.8731C110.926 72.9114 111.13 73.7496 111.747 74.3761C111.951 73.5448 112.565 72.4993 113.592 72.4993C114.41 74.162 114.619 74.786 113.798 77.4963C114.41 77.9178 115.029 78.1297 115.646 78.7563C116.052 77.7058 116.258 76.2482 116.258 75.4169C116.258 73.9594 115.852 72.4993 115.442 71.2487C115.029 70.4221 114.41 69.3766 113.798 68.7457L111.54 68.5431C112.361 68.7457 112.361 69.7955 112.361 70.4221C111.951 70.6247 110.926 70.8298 110.926 71.8728M103.547 73.1258C103.547 74.998 106.213 77.4963 106.213 77.4963C106.213 76.2482 105.8 74.998 105.596 73.7496C105.596 73.7496 106.417 72.9114 107.441 72.9114C108.056 73.1255 108.056 73.7499 108.26 74.3761C108.877 75.6267 110.107 76.8679 110.513 78.1297C110.715 78.1297 110.715 77.9178 110.715 77.9178C110.715 76.0435 110.513 72.0801 109.081 70.6247C107.847 69.3766 107.238 69.3766 106.007 69.1646L104.773 69.3766L105.596 70.6247C104.773 71.0414 103.547 71.8728 103.547 73.1255M68.8953 73.7496L69.5075 74.3761C70.124 73.7496 69.7183 71.8731 70.7405 71.6633C71.7629 71.6633 72.5884 70.6247 72.9962 70.4221L72.3843 70.0006C72.3843 70.0006 71.7629 69.7955 71.3573 70.0006C70.9445 70.4221 70.5367 70.6247 70.5367 71.2487C70.124 71.6633 69.5075 71.2487 69.1015 71.6633C68.8953 72.2898 68.6913 73.1255 68.8953 73.7496ZM61.5117 70.6247C61.7204 71.2487 61.9241 72.2895 62.1303 73.1255C62.7425 71.8728 63.1552 70.0006 64.5901 70.0006C64.7942 69.1646 64.9982 68.5428 65.8212 68.1213L67.6642 67.9143C67.4602 68.5428 66.2293 68.7457 66.8412 70.0006C66.2293 70.6247 65.411 70.6247 64.9982 71.6633C64.5901 72.2898 64.9982 73.1255 64.7942 73.7496L66.2294 74.3761C66.2294 73.1255 65.8212 71.2487 67.4602 70.6247C68.6913 71.0414 68.8953 69.3766 69.7183 68.7457C70.124 68.5431 70.124 67.4973 70.7405 68.1213C71.7629 68.7457 73.2027 68.1213 74.2295 68.7457L73.2027 66.8732C72.3843 66.2492 71.3573 66.6638 70.5367 66.2492L68.895 66.0397C67.0477 66.0397 65.6147 66.8732 63.9712 67.4973C63.1549 68.1213 62.7425 68.7457 62.7425 69.7955C62.1303 70.0006 61.3052 70.0006 61.5117 70.6247ZM28.3065 70.4221C28.7168 71.0414 28.9049 71.2487 29.1179 71.6633C29.1179 70.6247 30.3514 70.0006 31.1628 68.1213L30.3511 66.6638C29.5238 66.8732 28.9049 67.4973 28.9049 68.5428C28.9049 68.7454 29.1178 69.3766 28.9049 69.7958C28.9049 70.0006 28.3065 70.0006 28.3065 70.4221ZM97.6004 71.0414L98.2172 73.1255L99.6496 69.3766C101.495 67.4973 103.338 67.29 104.572 66.6638C105.186 66.2492 105.186 66.8732 105.8 66.6638C105.8 66.0397 105.596 65.4157 104.979 64.7916H103.751L102.522 65.4157C101.701 66.0397 100.266 66.0397 100.266 67.29C100.266 67.7092 100.468 67.9143 100.058 68.5431L97.8045 69.3766L97.6004 71.0414ZM34.8601 68.7457C34.8601 68.9576 35.2682 69.3766 35.2682 69.3766C36.2885 68.7457 37.1094 68.3355 38.3448 68.3355C38.3448 67.7092 38.7529 66.6638 39.1632 66.6638C40.5983 66.6638 40.3964 67.2903 41.4167 67.2903L39.5688 65.4157C39.3718 65.0011 39.1632 65.0011 38.7526 65.0011C38.1407 65.4157 37.9367 65.6251 37.3177 65.6251C37.3177 66.0397 37.3177 66.2492 37.5172 66.8732C37.1091 67.29 36.4972 66.8732 36.0891 67.29C35.4723 67.4973 34.8604 67.9143 34.8604 68.7457M59.0541 70.0006H59.256C59.6684 69.3766 59.8679 68.7457 60.2827 68.7457C59.6684 66.2492 60.8971 64.3724 61.3052 62.2883L61.5117 61.6689C60.6976 62.7075 59.0541 63.748 59.256 65.0011C59.0541 66.8732 58.8454 68.5428 59.0541 70.0006ZM94.3201 67.9143L95.755 69.3763C96.161 68.7457 95.755 67.4973 96.5758 66.8732C96.5758 66.6638 95.9591 66.2492 96.161 66.0397C96.5758 65.6251 99.0332 64.7916 99.0332 64.7916C100.058 64.1651 100.881 63.5385 101.701 62.5002C102.724 62.2883 103.338 62.9192 104.368 63.1243C104.571 62.9192 104.571 62.5002 104.571 62.5002C103.953 61.8715 103.953 60.6278 102.724 60.6278C102.109 60.6278 101.289 60.6278 100.677 61.2475C99.8537 61.2475 99.4413 62.0857 98.8337 62.2883C97.8045 63.5389 96.9837 63.7483 96.161 64.3724C96.3718 65.0011 95.959 65.4157 95.5534 65.6251C94.3198 65.6251 94.7328 66.8732 94.3201 67.9143ZM26.86 64.5822C26.86 65.8346 26.86 66.2492 27.4743 67.29L28.9049 65.4157C28.3065 64.7916 28.3065 63.748 27.6805 62.9192C27.4743 62.9192 26.86 64.3727 26.86 64.5822ZM63.3568 66.0397C64.3817 65.4157 65.615 65.4157 66.229 64.3724C66.8412 64.1651 67.6642 64.1651 68.6913 64.1651C69.5075 64.3724 70.5367 64.3724 71.3573 64.3724C71.5613 64.3724 71.3573 64.1651 71.7629 63.7483C72.9965 64.3724 74.4335 64.3724 75.6646 65.6251L74.6376 63.1243C73.8192 63.1243 73.2027 62.5002 72.5884 62.5002C71.9694 62.2883 71.1511 62.2883 70.5367 62.2883V62.5002C68.0723 62.5002 65.4109 62.2883 63.5633 64.3724L63.3568 66.0397ZM32.5979 64.1651C32.5979 65.0011 32.802 65.2037 33.006 66.2492C34.6539 66.0397 34.4409 64.3727 34.8604 64.1651C35.6809 62.9192 37.3177 63.7483 38.5488 63.7483C38.7529 62.5002 38.1407 62.5002 38.1407 61.8715C37.5172 61.8715 36.9053 61.2475 36.2885 61.6689C35.2685 61.2475 34.6542 62.2883 33.625 62.2883C33.2169 62.9192 32.802 63.7483 32.5979 64.1651ZM93.2952 61.0424C93.2952 61.6689 93.5017 64.3724 93.5017 64.3724C93.912 62.7075 94.9366 61.2475 96.161 61.2475C96.9837 60.6278 97.6001 59.9991 97.8045 59.375C98.4213 58.751 99.0332 59.1656 99.8537 58.751C100.677 58.751 101.701 58.751 102.724 59.1656V58.751L101.289 56.872C99.6496 57.2887 97.8045 56.872 97.1877 58.1223C96.3715 58.751 95.3423 59.1656 94.9366 59.7849V60.4161C94.5239 60.6281 93.7033 60.8351 93.2952 61.0427M84.2726 60.6281C85.0953 61.2475 85.9162 61.2475 86.7346 61.0427L87.9678 59.1656C87.1494 59.375 85.9162 59.375 84.887 59.1656L84.2726 60.6281ZM48.3831 61.6689C48.3831 62.7075 49.8274 64.1651 50.2285 65.0011C49.8274 63.748 49.6188 61.6689 50.2285 61.6689C50.6434 61.4569 51.471 61.8715 51.471 61.2475C51.471 60.6278 51.2623 59.7849 51.2623 59.1656C51.2623 58.5437 51.8766 58.1223 51.8766 57.5029C51.8766 56.2479 50.4418 56.0407 50.029 55.2068C49.6188 56.0407 49.8274 57.0815 49.8274 57.915C49.6188 58.5437 49.2128 59.7852 49.6188 60.8351C49.6188 61.4569 48.3831 61.0424 48.3831 61.6689ZM63.9715 61.6689C64.9982 61.6689 65.8212 61.6689 66.4334 60.6278C66.6421 60.6278 67.0477 59.9991 67.4602 60.4158C68.2786 61.2475 69.5075 59.7849 70.7405 59.9991C71.3573 60.6278 72.1802 61.0424 72.9962 61.2475L73.2027 61.0424C73.2027 60.4158 72.5884 59.7849 71.9691 59.1659C70.5367 59.7849 69.5075 56.8717 68.0723 58.5437C67.6642 58.751 66.8412 58.751 66.4334 58.751C64.9982 59.1656 64.5901 60.6278 63.9712 61.6686M78.5325 60.4161H78.7341C79.149 60.4161 80.5863 59.7849 80.9945 59.1656C81.1961 58.751 81.1961 58.1223 81.1961 58.1223C80.5864 58.1223 80.1715 57.915 79.5593 57.915L78.5325 60.4161ZM31.9857 61.6689C33.4231 61.6689 32.5979 58.7513 35.6809 58.7513C36.4972 58.7513 36.9053 59.7849 37.7259 59.9991C37.7259 59.7849 37.5172 58.5437 37.5172 58.5437C37.5172 57.915 37.3177 57.2887 36.4972 56.6672C34.8604 56.6672 35.2685 57.2887 34.0374 57.7055C33.2169 57.915 32.802 58.544 31.9857 58.544V61.6689ZM53.518 59.375C53.518 60.6281 54.1302 61.8715 54.341 63.1243C54.341 61.6686 54.7445 60.6278 55.5675 59.7849C55.5675 59.375 54.9529 59.1656 55.361 58.751C55.361 58.751 56.5921 58.1223 56.5921 57.2887C56.5921 56.2476 55.7713 55.6192 55.361 54.9927C55.361 54.7901 54.5448 55.4188 54.5448 56.6669C54.5448 57.0815 54.5448 57.5029 54.7442 58.1226C54.9529 58.751 53.518 58.751 53.518 59.375ZM43.4684 55.2068C43.4684 56.0407 43.8808 56.6669 43.67 57.5029C44.2889 56.2479 44.9125 54.9927 45.5201 53.7493C45.7263 53.7493 45.9257 53.7493 45.9257 53.542L45.3227 53.1252C44.9125 53.1252 44.289 53.1252 44.289 53.542C43.8808 53.9612 43.4684 54.5806 43.4684 55.2068ZM30.9608 56.872C31.5844 56.6669 33.006 56.4527 33.006 55.8334C33.006 54.9927 33.4231 54.7901 34.4409 54.7901C35.4726 54.7901 36.0891 54.9927 37.3177 55.4188C37.3177 55.4188 37.9367 54.5803 38.1407 53.7493C37.7259 53.542 36.0891 52.9108 35.2685 52.9108C33.8244 52.9108 32.1944 52.9108 32.1944 53.7493C32.1944 54.3733 30.9608 54.7904 30.9608 56.872ZM84.6875 52.5012C84.887 53.7493 85.5038 54.1638 86.5305 55.6192C87.3467 56.0406 88.58 56.2479 89.8108 56.872C89.6068 56.2479 88.9903 56.0406 88.58 55.4188C87.9678 54.7901 87.3465 53.7493 87.1494 52.9111C86.1153 52.5012 85.5035 52.5012 84.6875 52.5012ZM46.5401 55.4188C46.5401 56.6669 46.7509 58.3364 46.7509 59.7849C47.363 59.7849 47.363 59.1656 47.363 58.5437C47.7712 57.2887 47.9774 56.0406 48.3831 54.7901C49.0044 52.9111 50.029 51.4601 50.8474 49.5786C51.0536 48.5403 52.0853 48.121 52.8991 47.497C51.8766 47.497 50.8474 47.7043 50.029 48.333C50.029 48.957 49.8274 49.1665 49.2128 49.793C47.7712 49.793 47.9774 51.6627 46.7509 52.7085C46.7509 52.9111 47.1544 52.9111 47.363 53.3369C47.7712 53.3369 47.9774 54.1638 47.9774 54.1638C47.363 54.5806 46.7509 54.7904 46.5401 55.4188ZM88.5797 50.6244C89.1987 51.8771 89.8108 53.1252 91.0395 53.7493C91.8603 53.7493 92.8828 54.1638 94.1161 53.7493C93.5017 53.1252 92.8825 52.9108 92.0665 52.5012L90.2211 50.6244H88.5797ZM76.279 53.7493C76.8933 54.1638 78.1244 54.3733 78.7341 54.3733C80.3801 53.542 80.3801 51.8771 81.8129 51.2506C82.0215 51.0386 82.2253 50.624 82.2253 50.4171L78.7341 51.0386C78.9428 51.6627 78.5325 51.8771 78.1244 51.8771C77.5076 52.5012 76.8933 53.1252 76.279 53.7493ZM52.0853 53.7493C52.2848 54.1638 52.6996 54.3733 52.8991 54.3733C52.8991 54.3733 53.9283 53.3369 54.1302 52.5012C54.341 51.4601 53.7221 50 53.7221 50C53.518 50 53.314 50.4171 52.8991 50.4171C52.6996 50.6244 52.8991 51.2506 52.6996 51.8771C52.2848 52.5012 51.6704 53.1252 52.0853 53.7493ZM94.3201 50L95.3423 53.1252C96.3718 54.1638 97.8045 53.7493 99.0332 53.7493C97.1877 53.1252 95.959 51.2506 95.3423 50C94.9366 49.793 94.7325 50 94.3201 50ZM68.8953 52.5012H69.5075C71.9694 53.1252 73.8192 51.6627 75.6646 50.4171C74.4335 50 73.4068 50 72.5884 49.793H71.9695L71.151 51.0386C70.5367 51.2506 69.5075 51.8771 68.8953 52.5012ZM29.1179 52.2914C30.5438 52.2914 31.9858 51.6627 32.1944 51.0386C32.5979 50.624 32.3939 49.793 33.2169 49.793C33.8244 49.793 34.2393 50.4171 34.2393 50.4171C34.8604 50.6244 36.0891 49.793 36.0891 50.4171C36.0891 51.4601 37.1094 51.8771 37.9367 51.8771C38.5488 51.8771 38.7529 51.8771 39.3718 51.6627V49.5786C36.4972 49.5786 36.7034 48.5403 35.4726 48.5403C34.6542 48.5403 34.0374 49.1668 33.2169 49.1668C32.1944 49.1668 32.802 48.7522 31.7795 48.7522C30.7479 48.7522 30.3511 49.5786 29.5238 49.793C29.5238 50.4171 29.1179 51.2506 29.1179 52.2914ZM97.1877 47.2897C97.1877 48.121 97.8045 49.3738 98.8337 50.4171C99.0332 50.6244 99.65 51.0386 99.65 51.0386C99.65 49.793 99.0332 48.5403 99.0332 47.497C98.421 47.2897 97.8045 46.8704 97.1877 47.2897ZM65.2001 50C66.2294 50 67.6642 50 68.4805 49.3735C69.7183 48.5403 70.124 48.121 70.7405 47.497C69.9153 46.8704 68.8953 46.8704 68.2785 46.6656C67.6642 47.497 66.6418 49.1665 65.2001 50ZM54.9529 48.957C54.9529 49.5786 55.361 49.793 55.7713 50.2073C55.7713 50.2073 56.5921 49.1665 56.5921 48.5403C56.5921 47.9137 56.5921 47.2897 56.3881 46.6656C55.7713 47.2897 54.9529 48.121 54.9529 48.9567M45.5201 49.3738C47.3631 48.1207 48.5917 46.2464 50.2285 44.3764C48.5917 44.3764 47.9774 46.0369 46.7509 46.2467C46.336 46.6656 45.9257 46.8704 45.5201 47.4967V49.3738ZM83.6605 44.1648C83.6605 45.6267 83.8667 47.497 85.2951 48.121L85.9162 46.0369C85.0953 45.627 84.4767 45.0005 83.6605 44.1648ZM88.1694 47.497C89.4006 46.2464 90.4319 45.0005 90.4319 43.7524C89.8108 43.7524 89.1986 43.7524 88.58 44.3764C88.58 45.4175 87.9678 46.247 88.1694 47.497ZM29.5238 47.2897C31.3711 46.4562 34.0377 45.627 35.4726 45.627C36.2888 45.627 38.7529 46.6656 39.7754 47.7043L40.1835 45.627C38.7529 45.4175 38.7529 44.3764 37.9367 44.3764C37.3177 44.3764 36.4972 44.1645 35.8761 44.1645C35.2685 44.1645 34.8604 43.5407 34.4409 43.5407C33.6247 43.5407 34.0374 44.7888 33.2166 44.7888C32.5979 44.7888 32.3939 44.3764 31.7795 44.3764C30.7479 44.3764 29.73 46.0369 29.5238 47.2897ZM78.9428 47.497C79.972 46.8704 81.8129 46.6656 81.6088 45.4175C80.9945 44.3764 80.3801 44.1645 79.972 43.5407C79.7634 45.0005 79.5593 46.2464 78.9428 47.497ZM60.0765 46.2464L61.1014 46.6656C63.3568 46.6656 64.5904 46.0369 65.615 45.0005C64.7942 45.0005 63.5633 44.1648 63.5633 44.1648C62.5363 45.0005 61.1011 46.0369 60.0765 46.2464ZM100.058 44.1648C100.881 45.0005 101.908 45.6267 102.522 46.8704C102.522 46.2464 102.724 45.6267 102.93 45.0005C102.724 44.3764 102.109 43.7524 101.701 43.5407C101.289 43.7527 100.677 43.7527 100.058 44.1648ZM73.8192 46.6656C74.6376 46.8704 76.0728 47.2897 76.6871 46.2464C77.9204 44.3764 77.0995 42.4974 76.483 41.0464C76.0728 42.2923 75.8662 43.5407 75.6646 44.7888C75.456 45.627 74.2295 46.0369 73.8192 46.6653M57.6192 43.1237C58.4397 43.5407 60.0765 43.7524 61.3052 42.9142L59.6684 41.8756C59.0541 42.4974 58.2311 42.9142 57.6192 43.1237ZM34.4409 42.4971C35.6809 42.4971 36.0891 42.2923 37.1094 42.2923C37.9367 42.2923 39.1632 42.9142 39.9837 43.7524C40.3964 43.1237 40.1832 42.4974 39.9837 41.8759C39.3718 41.2468 38.3448 40.418 37.3177 40.418C35.8761 40.418 34.4409 41.6661 34.4409 42.4971ZM94.9366 44.7888C96.3718 44.3764 97.8045 43.1237 98.421 41.8756C98.8337 41.0464 99.0332 39.9988 99.0332 39.1627C98.2169 39.3725 97.6001 39.9988 97.1877 40.418V40.6206C96.3715 41.8756 95.1406 43.1237 94.9366 44.7888ZM92.2706 41.2468L92.6787 44.1645C93.5017 42.9142 94.1161 41.6661 94.3201 39.9988L92.2706 41.2468ZM71.151 43.7524C72.3843 44.1648 73.2027 43.1237 74.0233 42.4974C74.6376 41.2468 74.6376 39.9988 75.0457 39.1627C74.0232 39.9988 72.3843 39.9988 72.5884 41.8756C72.5884 42.4974 71.7629 43.1237 71.151 43.7524ZM66.229 41.2468C67.4602 41.2468 68.8953 41.8756 69.5075 40.6203C69.1015 40.4177 68.6913 39.7936 68.0723 39.3725L66.229 41.2468ZM34.239 39.1627C35.6812 38.7507 36.7034 38.3314 37.9367 38.3314C38.5488 38.3314 40.3964 38.7507 40.5983 39.1627C41.2194 38.5387 40.1835 36.6712 39.3718 36.252C38.5488 35.8352 37.9367 36.0447 37.5172 36.252C37.5172 37.5026 36.0891 36.8785 35.2685 37.2906C34.8604 37.9125 34.4409 38.5387 34.2393 39.1627M62.3301 38.1241C62.7425 38.7507 63.3568 38.1241 63.7693 38.1241H65.615C65.8212 37.5026 66.0253 37.2906 66.2294 36.8782C65.2001 36.6712 64.5901 36.2517 63.9712 36.6712C63.3568 37.2906 63.1549 38.1241 62.3301 38.1241ZM79.972 34.7941C80.1715 36.0447 80.5864 38.1241 81.8129 38.7507C81.8129 38.1241 82.4296 37.5026 82.8396 36.8782C83.0415 36.8782 82.8396 37.5026 83.0415 37.5026C83.0415 38.1241 83.2456 38.7507 83.2456 39.7936C83.8667 39.9988 84.6875 40.418 85.5035 39.9988V39.3722C85.9162 38.7507 85.9162 38.1241 85.9162 37.5026L86.1156 37.2906C86.5305 37.5026 86.5305 38.1241 86.5305 38.5387C86.7346 38.7507 87.3468 39.3725 87.3468 39.9988C87.9678 39.9988 88.58 39.7937 89.1986 39.3722V37.2906C89.1986 36.8782 89.1986 36.8782 89.4006 36.8782L90.4319 38.1241C91.2414 37.2906 91.4476 35.6255 91.4476 34.3727C87.9678 32.5005 83.8667 33.1246 81.1961 34.1726C80.7904 34.3727 80.3801 34.3727 79.972 34.7941ZM63.9712 33.1246C65.2001 33.1246 65.8212 32.5005 66.4334 31.2503C66.4334 30.6284 66.6421 29.7902 66.4334 28.7516C66.2293 29.3756 66.0253 30.0019 65.615 30.4143C64.7942 30.0019 64.7942 31.0383 64.5901 31.2503C64.3814 31.8765 63.9712 32.5005 63.9712 33.1246ZM68.4805 22.9136C68.4805 23.128 68.8953 24.7882 68.8953 24.7882L70.5367 25.4191L69.5075 20.6247C69.1015 21.456 68.4805 22.292 68.4805 22.9136ZM101.082 19.3741L101.908 20.6247C101.701 22.9136 102.724 24.3761 102.724 26.2482L103.75 22.9136C103.546 21.8753 103.338 21.0414 102.723 20.0006L101.082 19.3741ZM68.895 32.5005C71.3569 31.0383 74.2291 30.0019 77.3033 29.7902C77.3033 30.4143 77.3033 31.0383 77.5073 31.2503C75.0454 32.5005 72.5881 33.7486 70.5364 35.6255V37.5026C72.5881 35.4182 75.0454 33.1246 77.92 32.5005C78.1241 32.9173 78.7338 33.5417 79.1487 34.1726C80.586 33.1246 82.225 32.2933 84.0658 31.8765C84.6872 31.8765 84.8867 31.038 84.8867 30.4143L85.0953 29.3756C84.0658 29.1659 83.245 28.3323 83.0412 27.2937C82.8393 27.501 82.429 27.501 82.0209 27.501C81.6085 27.2937 81.6085 26.8745 81.6085 26.2482C81.6085 25.0023 84.272 25.0023 85.5032 25.0023C86.9383 25.0023 87.9672 24.7882 88.99 25.6264C89.4003 25.6264 89.1986 26.2482 89.1986 26.6675C89.1986 26.8748 88.5797 27.294 88.5797 27.294C87.9675 27.294 87.7589 26.8748 87.3461 26.8748C87.5573 28.1251 86.938 28.9564 85.9159 29.3756L86.1153 31.2503C86.7343 31.8765 87.7589 31.4572 88.5794 31.8765C89.8105 32.5005 91.0392 33.1246 92.2703 33.7486C92.8825 33.1246 93.2952 32.5005 93.7033 31.8765C95.7547 32.5005 96.9837 33.7486 99.0329 35.0014C99.6497 35.4182 100.676 36.252 100.676 36.252C100.88 36.0447 100.676 35.4182 100.676 34.7941C98.8334 32.9176 96.3712 32.2933 94.3198 31.038V29.3756C95.1404 29.1659 95.9587 29.3756 96.9833 29.3756C98.8334 29.7902 100.676 30.6284 102.109 31.6645C102.109 31.038 102.522 30.4143 101.908 30.0019C99.6493 28.7516 96.9833 27.9178 94.1157 28.1254V27.2937C94.3198 26.8748 94.3198 26.2482 94.7325 26.2482C95.9587 24.7882 97.1874 23.128 97.1874 21.668L96.5755 21.2465C96.9836 20.0006 97.1874 16.8732 96.5755 15.4178C97.8042 15.0011 99.0329 13.7505 99.441 12.9192C99.8534 11.8737 100.266 11.2518 100.468 10.0016C100.057 8.75347 99.441 8.12693 98.8334 6.87634C98.4207 6.87634 97.8042 6.66937 97.5998 6.24981C96.5755 6.04283 95.7547 4.99984 94.5236 5.62607C93.703 5.62607 92.8825 6.04283 92.2703 6.25012C92.2703 6.66937 92.2703 6.87666 91.6514 7.29341C90.4316 7.5007 90.4316 8.75347 89.8105 9.7896C89.1983 10.0016 88.5797 10.0016 87.9675 10.0016C86.7339 10.4161 85.9159 10.4161 85.2948 11.0427C83.6602 10.0016 81.8126 9.7896 79.9717 10.0016C79.7631 9.16773 79.3506 8.5415 79.1487 7.5007C78.7338 7.91746 78.9425 7.29341 78.5319 7.29341C77.5073 6.66937 76.4827 5.62576 75.0454 6.04283C74.0229 6.66937 72.5881 6.25012 71.9691 7.5007C71.1507 8.12693 70.7402 9.3772 70.1237 10.6256C70.7405 11.8737 70.1237 13.7505 71.357 14.3724L72.5881 15.6273C72.9962 15.6273 73.2024 16.0397 73.8189 16.0397C73.2021 17.4998 73.6127 19.7958 74.2291 21.2465C73.8189 21.0414 73.2024 21.0414 72.9959 20.4174C72.7918 20.6247 72.9959 21.0414 72.9959 21.2465C73.2024 21.668 73.2024 21.8753 73.2024 21.8753C72.9959 23.128 73.8192 24.1641 74.6373 25.0023C75.0454 26.2482 76.0725 27.9178 77.5073 28.1251V28.7516C74.4332 28.7516 71.7629 29.3756 68.895 31.0383V32.5005ZM22.7656 18.75C23.3824 18.126 23.9942 17.4998 24.8148 17.4998C25.4248 16.6659 26.2386 15.6273 27.0729 15.6273C26.4516 15.4178 25.6332 15.0008 24.6086 15.0008C23.9942 16.0397 23.382 16.8732 23.1734 17.4998L22.7656 18.75ZM101.495 16.2514L102.93 16.8732L102.723 15.6273C102.315 15.0008 102.109 14.3724 101.495 13.7508V16.2514ZM29.3173 14.1698C30.1378 14.1698 30.7476 14.3724 31.5841 14.1698C31.9854 13.7505 32.5976 14.1698 33.0057 14.3724C33.4228 14.3724 33.8241 14.1698 34.4406 13.7505C33.2162 13.7505 32.5976 12.9192 31.5841 12.4977C30.7476 13.1243 29.9384 13.5432 29.3173 14.1698ZM74.6373 74.3761C74.6373 73.5448 75.2541 73.1255 76.0725 73.1255C76.6868 73.1255 77.5073 73.9594 77.5073 74.3761C77.5073 75.2121 78.1241 79.9997 78.1241 79.9997H76.4824C75.8659 77.9178 74.6373 75.4169 74.6373 74.3761ZM79.3506 74.162H79.5593L81.1958 72.4993H81.4044C81.8125 72.9114 82.0212 73.5448 82.4293 74.162C82.4293 76.0435 81.8125 78.13 81.4044 79.9997H79.559C79.559 77.9178 79.3506 76.0435 79.3506 74.162ZM46.3357 71.6633L48.3827 71.8728C47.7709 72.4993 47.7709 73.3328 47.7709 73.7496C47.7709 74.3761 47.9771 74.998 48.3827 75.4172C49.0041 74.998 49.0041 74.3761 49.4169 73.7496C49.8271 73.7496 50.0287 74.786 50.0287 75.2121C50.0287 77.2937 49.2125 78.7563 48.5914 80H46.5397C46.7506 78.1297 47.1541 76.665 47.1541 74.786C47.1541 73.7496 46.5398 72.4993 46.3357 71.6633ZM-4.7186e-07 51.6627C-4.7186e-07 42.9142 2.86762 33.5414 10.664 25.6264C11.9064 24.3761 13.5297 22.9136 15.1779 21.8753C18.2541 19.7955 21.115 16.8732 22.7656 13.7505C23.7902 12.4977 24.6086 11.874 25.844 11.2518C25.6332 11.8737 25.2296 12.4977 25.0234 13.1243H25.2296C26.4516 13.1243 27.474 12.4977 28.3062 11.8737L27.474 11.0424C27.6805 10.6256 28.3062 10.6256 28.7165 10.6256C32.3936 10.0016 35.4723 11.8737 38.7526 12.4977V12.9192C36.7031 13.7505 36.2885 16.2514 35.0663 17.4998H33.8241C33.2166 17.4998 32.5976 18.1263 32.1941 17.9187C32.1941 17.4998 32.5976 16.8732 32.5976 16.6659C32.1941 16.2514 31.7792 16.2514 31.3711 16.6659C30.3508 17.29 28.7165 16.2514 27.8981 17.919C29.1175 17.919 30.3508 18.126 31.3711 18.5406C31.3711 18.75 30.7476 19.3741 30.9608 19.7955C31.9857 19.3741 33.2163 19.7955 33.8238 18.75L34.0371 19.1668C32.5976 20.6247 30.7476 21.8753 28.9046 22.5037C26.0416 23.128 23.5815 21.668 20.9134 22.2917C17.8347 23.7496 15.3795 25.6264 13.3278 27.7105C6.56067 35.0014 4.09442 42.7047 4.09442 49.5786C4.09442 58.1226 6.56065 64.1651 10.2491 67.9143C12.5116 70.2126 15.3795 72.2895 18.8663 72.2895C19.6826 72.2895 21.3282 72.08 22.3507 71.2487C21.7385 68.7457 21.3282 66.0397 21.3282 62.0857C21.3282 59.7852 21.3282 53.7493 24.1937 46.6653C24.8148 45.2078 27.0729 40.6206 29.9381 37.5026C32.1941 35.2087 34.8601 33.1246 37.5169 33.1246C38.7526 33.1246 39.9834 33.3344 41.0129 34.1726C42.0329 35.2087 42.6497 36.8782 42.441 38.1241C44.2886 39.1627 46.9568 39.9988 49.2125 39.9988C51.8763 39.9988 54.7442 38.5387 57.2108 36.8785V33.7489C58.6456 33.1246 59.0538 32.5005 59.2557 31.2503L59.0538 31.0383C58.4394 31.2503 58.0224 31.6648 57.6189 31.8765C57.8226 30.4143 58.0224 28.7516 58.8451 27.501C59.4619 27.501 60.0762 27.2937 60.6973 26.8745C61.5114 26.2482 61.9238 25.4191 61.9238 24.3761C61.3049 25.4191 60.2824 25.0027 59.6684 25.6264C60.6973 23.128 60.2824 21.8753 62.13 17.9187C62.7422 16.0397 64.5898 15.0011 65.8209 13.7505C66.4331 13.124 66.6415 12.4977 67.6639 12.4977C68.2782 12.2883 68.2782 11.2518 68.4802 10.6256C68.072 10.6256 67.6639 11.0424 67.2536 11.2521C68.2785 8.12693 69.3031 4.99953 72.1799 3.12521L72.5881 3.54415C73.8189 3.74677 75.0454 3.74677 76.0725 3.74677C75.6643 3.12521 74.8435 2.91762 74.0229 2.50304C74.8435 1.87681 75.456 1.66765 76.6865 1.66765C77.0992 1.87681 78.1241 2.50304 78.9425 2.50304H79.1487C79.1487 1.87681 79.3506 1.03862 78.1238 0.62654C79.3506 0.414576 80.3798 0.414576 81.8123 0.62654C82.0209 1.66765 82.8393 2.29388 82.8393 3.12521C83.4539 3.74677 83.6601 4.37331 84.2723 4.99953C84.2723 3.54415 83.6601 2.29388 83.4539 1.03862C84.2723 1.2484 85.2948 1.87712 85.9159 1.87712C87.5573 1.03862 89.6065 0 90.4316 0C89.1983 1.03862 89.8105 2.50304 89.6065 3.74677L90.4319 3.12521C90.8351 2.29388 91.6514 1.66734 92.0662 0.62654C93.2949 0.62654 94.1157 1.03862 95.1403 1.66765L95.342 1.87681C94.5236 1.87681 93.7033 2.50335 93.2952 3.12521C94.7322 3.12521 95.7547 2.50335 97.1874 2.50335C97.1874 2.50335 97.1874 2.29388 97.6001 2.29388C98.2169 2.50335 98.8334 3.12522 99.2437 3.54415C100.677 4.79006 101.701 6.04283 102.522 7.91746C102.109 7.91746 101.495 7.91746 101.288 8.12693C101.908 8.54151 102.522 9.37751 103.338 9.7896V12.9192C103.952 13.7505 104.773 14.3724 105.185 15.4178C106.212 19.1668 106.416 23.128 106.416 27.501C106.827 28.1251 107.237 28.3323 107.641 28.5443V32.2933C107.641 32.2933 106.212 30.8332 105.596 30.4143C105.596 31.2503 105.8 32.5005 105.8 33.3344C106.417 33.3344 107.237 34.1726 107.237 35.0014C107.237 35.8352 107.033 36.6712 107.033 37.5026C107.033 37.9125 107.033 38.1241 106.827 38.5387C106.621 38.1241 106.212 37.5026 105.8 37.2906C105.596 37.2906 105.186 36.8782 104.571 36.8782C104.979 37.5026 105.186 38.5387 105.596 39.3725L106.213 39.9988C106.213 39.9988 106.416 40.418 106.416 40.6206C105.8 45.0005 104.367 49.1665 102.723 53.542C104.161 56.4527 105.596 59.5823 106.212 61.8715C106.827 63.5389 107.641 66.8732 107.641 66.8732C108.668 65.8346 110.107 65.6251 111.339 65.6251C112.771 65.8346 114.002 66.2492 115.029 67.4973C116.258 66.8732 117.899 67.0805 118.72 68.1213C120.563 69.7955 120.563 70.6247 120.563 71.8728C121.179 72.4993 122 73.5448 122 74.998C122 77.0843 121.588 78.3277 120.563 79.9997H87.9675C88.3756 79.3756 88.7881 78.5421 89.1983 77.9178C89.8105 76.665 89.4002 74.998 89.4002 73.7496C88.7881 72.4993 87.9672 71.2487 87.3464 70.0006C87.1491 69.3766 87.3465 69.3766 86.9383 69.1646L85.5032 68.5428C84.6869 68.5428 84.0658 68.1213 83.0412 68.1213C82.225 69.1646 82.225 67.29 81.1958 66.8732C78.7338 66.6638 76.6868 66.8732 75.4557 68.7457C75.4557 69.1646 75.0454 69.1646 75.0454 69.3766H76.0725C77.3033 68.7457 78.9425 68.1213 80.3798 68.7457C80.3798 69.3766 80.586 69.3766 80.586 70.0006V71.0417C79.763 71.2487 79.1487 71.8728 78.3282 72.4993C77.9201 71.6633 76.6865 71.0414 75.6643 71.0414C74.6373 71.0414 72.9959 71.6633 72.9959 73.5445C72.9959 74.3761 73.2024 75.2121 73.2024 76.0435C72.384 76.665 71.1507 76.8679 70.1237 77.4963C70.5364 78.1297 71.1507 78.1297 71.7626 78.1297H73.6127C73.8189 77.9178 74.2295 77.9178 74.2295 77.4963C74.8435 78.1297 75.2541 79.1662 75.6643 79.9997H50.6431C51.0533 79.1662 51.4707 78.5421 51.6701 77.9178C52.2844 76.665 52.085 74.998 52.2845 73.7496L49.8271 70.4221C48.5914 70.4221 47.3627 70.0006 45.1092 69.7955C44.7035 69.1646 45.1092 68.7457 43.2683 68.5428C41.6294 68.5428 40.5981 69.1646 40.1832 69.3766C39.9837 69.7955 39.9837 69.7955 40.1832 70.2126C40.5981 70.6247 41.4164 69.7955 42.0329 70.0006C42.441 70.4221 41.8267 70.6247 41.8267 71.0417C41.4164 71.4563 43.6697 70.6247 43.6697 70.6247C43.6697 70.6247 44.2886 71.8728 44.4927 72.4993C44.4927 72.4993 43.4678 73.1258 43.2683 73.7496C42.8535 74.3761 43.6697 74.998 43.6697 75.6267C44.2886 75.4169 44.9122 74.786 45.1092 74.998C45.5198 76.665 45.1092 78.1297 45.3224 79.9997H43.06L42.6497 76.2482C42.441 74.162 39.9834 70.2126 38.5485 70.2126C37.5169 70.2126 37.1091 70.6247 36.2882 71.2487C35.6806 71.8728 34.8601 72.4993 34.8601 72.9114C34.8601 73.1255 35.4723 73.5448 36.4969 73.5448C36.905 73.5448 37.1091 72.9114 37.5169 72.4993L38.7526 73.7496C38.7526 73.7496 37.3174 74.998 37.3174 76.0435C37.3174 76.8679 37.5169 77.4963 38.3445 77.9178L39.5688 75.4169C40.1832 75.4169 41.2191 76.665 41.2191 77.4963C41.2191 78.3277 41.6294 78.7563 41.6294 79.9997H28.3062C26.8597 79.9997 25.6335 79.5783 24.1937 78.756H21.5323C17.8346 78.756 13.1191 78.1297 8.20664 73.3328C0.412424 65.8346 -4.7186e-07 55.6192 -4.7186e-07 51.6627ZM83.0412 79.9997C84.0661 77.9178 84.2723 74.998 84.2723 74.3761C84.2723 73.1255 84.2723 71.6633 83.6601 70.6247L86.115 71.2487C86.5302 71.8728 86.7343 72.4993 86.7343 72.9114L85.9159 72.4993C85.5031 72.4993 85.2948 72.9114 85.095 73.1258C85.2945 74.3758 86.5302 74.3758 87.1491 74.786C87.7589 76.8679 85.9156 78.1297 85.5032 79.9997H83.0412Z" fill="white"/>
</svg>
